<svg width="370" height="111" viewBox="0 0 370 111" fill="none" xmlns="http://www.w3.org/2000/svg">
<path d="M363.457 56.3382C366.289 53.0855 369.448 49.1849 369.174 44.7834C368.98 41.6576 366.576 41.5641 364.245 42.7195C359.075 45.2843 356.13 53.3727 353.825 58.2351C353.512 58.7026 348.662 69.1888 347.253 72.1677C345.37 74.3584 337.074 84.2235 335.197 86.1003C324.865 97.368 320.009 100.347 314.846 100.347C312.969 100.347 307.646 99.8726 307.646 93.9282C307.646 89.7003 311.4 81.7188 317.191 71.0723C320.483 65.2749 326.114 54.6351 326.114 48.5237C326.114 47.9025 326.114 42.2654 321.265 42.2654C315.688 42.2654 309.924 49.3652 306.384 55.0692C306.317 49.8996 304.58 42.2654 293.553 42.2654C288.537 42.2654 283.822 44.2624 279.474 46.5934C275.065 48.9511 270.944 51.8499 267.251 55.2161C262.495 59.5442 258.428 64.6404 255.422 70.3176C252.911 75.0464 250.987 79.9355 247.634 84.17C244.462 88.1842 240.581 91.6239 236.133 94.1553C229.995 97.6418 222.955 99.4051 215.909 99.4051C200.72 99.4051 184.437 91.2633 184.437 68.5677C184.437 50.0933 200.874 11.114 243.46 11.114C257.86 11.114 267.258 17.2187 267.258 25.2003C267.258 34.5911 257.079 41.3236 244.709 41.3236C236.727 41.3236 229.367 38.3514 229.367 32.4003C229.367 25.9817 237.195 24.8863 240.488 24.5724C241.737 24.4188 242.832 24.2585 242.832 23.3234C242.832 22.2281 241.109 22.2281 240.488 22.2281C232.813 22.2281 226.241 26.2956 226.241 32.7142C226.241 38.505 232.346 43.8283 244.088 43.8283C264.279 43.8283 273.362 29.1142 273.362 18.9353C273.362 8.7563 265.848 0 247.374 0C224.859 0 207.693 13.4317 193.934 30.243C187.923 37.59 183.916 42.2654 173.176 63.0708C171.64 66.0496 170.351 69.1487 168.921 72.1744C167.038 74.3651 158.742 84.2302 156.865 86.107C146.533 97.3746 141.677 100.354 136.514 100.354C134.637 100.354 129.314 99.8793 129.314 93.9349C129.314 89.707 133.068 81.7255 138.859 71.079C142.151 65.2815 147.782 54.6417 147.782 48.5304C147.782 47.9092 147.782 42.272 142.933 42.272C137.356 42.272 131.592 49.3719 128.052 55.0759C127.985 49.9062 126.248 42.272 115.221 42.272C110.205 42.272 105.49 44.2691 101.142 46.6001C96.7334 48.9578 92.6124 51.8565 88.9189 55.2228C84.1634 59.5509 80.0958 64.647 77.0902 70.3243C74.5789 75.0531 72.6553 79.9422 69.3024 84.1767C66.1298 88.1909 62.2492 91.6306 57.8009 94.162C51.6629 97.6485 44.6231 99.4118 37.5766 99.4118C22.3883 99.4118 6.1047 91.2699 6.1047 68.5743C6.1047 50.0999 22.542 11.1207 65.1279 11.1207C79.5281 11.1207 88.9256 17.2254 88.9256 25.2069C88.9256 34.5978 78.7466 41.3303 66.3769 41.3303C58.3954 41.3303 51.035 38.3581 51.035 32.407C51.035 25.9884 58.8629 24.893 62.1557 24.5791C63.4047 24.4255 64.5001 24.2652 64.5001 23.3301C64.5001 22.2347 62.7769 22.2347 62.1557 22.2347C54.4814 22.2347 47.9092 26.3023 47.9092 32.7209C47.9092 38.5117 54.0139 43.8349 65.7558 43.8349C85.9467 43.8349 95.0303 29.1209 95.0303 18.9419C95.0303 8.76298 87.5163 0 69.0419 0C29.4348 0 0 46.6535 0 80.1559C0 98.3164 11.7419 110.84 31.158 110.84C53.012 110.84 66.3435 97.0741 73.5369 85.0383C72.7488 88.1909 72.328 91.2499 72.328 94.0885C72.328 98.3164 73.4234 111 87.8235 111C109.43 111 124.926 82.193 124.926 71.7002C124.926 63.7186 120.077 60.2722 116.944 60.2722C114.754 60.2722 112.089 61.8418 112.089 65.2815C112.089 68.1001 113.344 69.1955 116.317 71.7002C117.726 72.7955 119.763 74.993 119.763 78.593C119.763 84.6977 111.154 100.821 93.621 100.821C88.2977 100.821 84.5374 99.4118 82.0327 97.3746C77.8049 93.9349 77.6512 89.2395 77.6512 86.8884C77.6512 74.679 89.5467 51.3489 110.679 51.3489C121.172 51.3489 124.458 56.3583 124.458 63.4047C124.458 64.1394 124.285 67.6259 125.975 66.5973C126.462 66.3034 126.662 65.709 126.809 65.168C127.077 64.2129 127.297 63.2444 127.611 62.3093C128.78 58.7828 131.545 54.8221 135.058 53.3059C138.024 52.0235 141.056 53.3861 141.056 56.8325C141.056 62.3093 135.572 71.8605 129.314 82.507C126.021 88.4513 122.107 95.8117 122.107 101.763C122.107 108.181 126.496 111 131.031 111C136.668 111 141.837 108.021 154.675 92.9931C155.456 92.2117 161.875 84.5374 166.417 78.4327C160.779 91.8978 158.114 98.7839 158.114 103.954C158.114 108.649 160.465 110.526 163.124 110.526C170.257 110.526 177.691 97.929 180.389 92.3853C184.544 103.7 194.829 110.84 209.49 110.84C231.344 110.84 244.676 97.0741 251.869 85.0383C251.081 88.1909 250.66 91.2499 250.66 94.0885C250.66 98.3164 251.755 111 266.156 111C287.762 111 303.258 82.193 303.258 71.7002C303.258 63.7186 298.409 60.2722 295.276 60.2722C293.086 60.2722 290.421 61.8418 290.421 65.2815C290.421 68.1001 291.676 69.1955 294.649 71.7002C296.058 72.7955 298.095 74.993 298.095 78.593C298.095 84.6977 289.486 100.821 271.953 100.821C266.63 100.821 262.869 99.4118 260.365 97.3746C256.137 93.9349 255.983 89.2395 255.983 86.8884C255.983 74.679 267.879 51.3489 289.011 51.3489C299.504 51.3489 302.79 56.3583 302.79 63.4047C302.79 64.1394 302.617 67.6259 304.307 66.5973C304.794 66.3034 304.995 65.709 305.141 65.168C305.409 64.2129 305.629 63.2444 305.943 62.3093C307.112 58.7828 309.877 54.8221 313.39 53.3059C316.356 52.0235 319.388 53.3861 319.388 56.8325C319.388 62.3093 313.904 71.8605 307.646 82.507C304.353 88.4513 300.439 95.8117 300.439 101.763C300.439 108.181 304.828 111 309.363 111C315 111 320.169 108.021 333.007 92.9931C333.788 92.2117 340.207 84.5374 344.749 78.4327C339.111 91.8978 336.446 98.7839 336.446 103.954C336.446 108.649 338.797 110.526 341.456 110.526C350.379 110.526 359.776 90.8024 359.776 89.8606C359.776 89.0792 359.149 88.6116 358.681 88.6116C357.9 88.6116 357.425 89.3931 356.958 90.0209C354.921 93.4607 350.225 99.8793 346.779 99.8793C346.472 99.8793 343.025 99.8793 343.025 95.3442C343.025 91.2633 344.127 87.1155 345.537 83.3285C347.019 79.3544 347.881 75.3336 350.265 71.7336C351.875 69.2957 353.979 67.2719 355.869 65.0678C358.013 62.5631 360.191 60.0919 362.355 57.6006C362.709 57.1931 363.083 56.7724 363.457 56.3382ZM178.626 90.0209C176.589 93.4607 171.893 99.8793 168.447 99.8793C168.14 99.8793 164.693 99.8793 164.693 95.3442C164.693 88.4513 168.607 78.9069 171.266 72.328C173.603 69.7298 177.497 65.3083 181.197 60.7197C179.327 67.3921 178.332 73.9978 178.332 80.1559C178.332 83.3084 178.686 86.294 179.374 89.0725C179.1 89.3464 178.86 89.707 178.626 90.0209Z" fill="#523D34"/>
</svg>
