<?xml version="1.0" encoding="utf-8"?>
<!-- Generator: Adobe Illustrator 27.0.0, SVG Export Plug-In . SVG Version: 6.00 Build 0)  -->
<svg version="1.1" id="Layer_1" xmlns="http://www.w3.org/2000/svg" xmlns:xlink="http://www.w3.org/1999/xlink" x="0px" y="0px"
	 viewBox="0 0 24 24" style="enable-background:new 0 0 24 24;" xml:space="preserve">
<style type="text/css">
	.st0{fill:#828282;}
</style>
<path class="st0" d="M12,0C5.4,0,0,5.4,0,12.1c0,6,4.4,11,10.1,11.9v-8.4h-3v-3.5h3V9.4c0-3,1.8-4.7,4.5-4.7C16,4.8,17.3,5,17.3,5v3
	h-1.5c-1.5,0-2,0.9-2,1.9v2.3h3.3l-0.5,3.5h-2.8V24c2.8-0.4,5.4-1.9,7.3-4.1c1.9-2.2,2.9-4.9,2.9-7.8C24,5.4,18.6,0,12,0z"/>
</svg>
