<?xml version="1.0" encoding="utf-8"?>
<!-- Generator: Adobe Illustrator 27.0.0, SVG Export Plug-In . SVG Version: 6.00 Build 0)  -->
<svg version="1.1" id="Layer_1" xmlns="http://www.w3.org/2000/svg" xmlns:xlink="http://www.w3.org/1999/xlink" x="0px" y="0px"
	 viewBox="0 0 24 24" style="enable-background:new 0 0 24 24;" xml:space="preserve">
<style type="text/css">
	.st0{fill:#828282;}
</style>
<path class="st0" d="M4,0C1.8,0,0,1.8,0,4v16c0,2.2,1.8,4,4,4h16c2.2,0,4-1.8,4-4V4c0-2.2-1.8-4-4-4H4z M5.2,5.1h4.5l3.2,4.6
	l3.9-4.6h1.4l-4.7,5.5l5.8,8.2h-4.5l-3.7-5.3l-4.5,5.3H5.1l5.3-6.2L5.2,5.1z M7.4,6.3l8.1,11.4h1.8L9.1,6.3H7.4z"/>
</svg>
